<?xml version="1.0" encoding="utf-8"?>
<!-- Generator: Adobe Illustrator 22.1.0, SVG Export Plug-In . SVG Version: 6.00 Build 0)  -->
<svg version="1.1" id="Layer_1" xmlns="http://www.w3.org/2000/svg" xmlns:xlink="http://www.w3.org/1999/xlink" x="0px" y="0px"
	 viewBox="0 0 453.5 680.3" style="enable-background:new 0 0 453.5 680.3;" xml:space="preserve">
<style type="text/css">
	.st0{fill-rule:evenodd;clip-rule:evenodd;}
</style>
<g>
	<path class="st0" d="M379.1,454.5c-9.8,0-17.7,7.9-17.7,17.7s7.9,17.7,17.7,17.7s17.7-7.9,17.7-17.7S388.8,454.5,379.1,454.5
		L379.1,454.5z M74.5,454.5c9.8,0,17.7,7.9,17.7,17.7S84.3,490,74.5,490c-9.8,0-17.7-7.9-17.7-17.7S64.7,454.5,74.5,454.5
		L74.5,454.5z M226.8,430.2c-19.6,0-35.4,15.9-35.4,35.4c0,19.6,15.9,35.4,35.4,35.4c19.6,0,35.4-15.9,35.4-35.4
		C262.2,446.1,246.3,430.2,226.8,430.2L226.8,430.2z M14.2,581.1l10.6,42.5h403.8l10.6-42.5H14.2L14.2,581.1z M92.2,637.8v42.5H56.8
		v-42.5H14.2L0.1,581.1V396.9c0-19.1-0.6-37.8,1.9-56.7l26.5-198.4c5.1-38.4,72.2-51.4,141.7-55.2V70.9c0-7.7,6.1-13.9,13.7-14.2
		l35.9,0V0h14.2v56.7l35.9,0c7.6,0.2,13.7,6.5,13.7,14.2v15.6c69.4,3.9,136.5,16.8,141.7,55.2l26.5,198.4
		c2.5,18.9,1.9,37.6,1.9,56.7v184.3l-14.2,56.7h-42.5v42.5h-35.4v-42.5H92.2L92.2,637.8z M117,120.5c-5.9,0-10.7,4.8-10.6,10.6v21.3
		c-0.1,5.9,4.8,10.7,10.6,10.6h219.5c5.9,0.1,10.7-4.8,10.6-10.6v-21.3c0.1-5.9-4.8-10.6-10.6-10.6H117L117,120.5z M219.7,184.3
		H68.3c-10.8,0-19.7,8.1-21.1,18.5L28.4,345c-1.5,11.2,7.3,23.5,21.3,23.5h170V184.3L219.7,184.3z M233.9,184.3h151.3
		c10.8,0,19.7,8.1,21.1,18.5L425.1,345c1.5,11.2-7.3,23.5-21.3,23.5h-170V184.3L233.9,184.3z"/>
</g>
</svg>
