<?xml version="1.0" encoding="UTF-8"?>
<svg id="Layer_1" data-name="Layer 1" xmlns="http://www.w3.org/2000/svg" viewBox="0 0 113.38583 113.38583">
  <defs>
    <style>
      .cls-1 {
        fill: #010101;
      }
    </style>
  </defs>
  <path class="cls-1" d="M77.24414,83.62207v-.00006c4.60626-.35437,8.50391-3.89758,8.50391-8.85828V18.77948c0-3.54327-3.18896-6.37793-6.7323-7.08661-6.73224-1.06299-15.59052-1.4173-22.32281-1.4173s-15.59058,.35431-21.96851,1.4173c-3.54327,.35431-6.73224,3.18896-6.73224,7.08661v56.33856c0,4.60632,3.89758,8.50397,8.50391,8.85834l-12.04724,19.48822h6.7323l8.50391-13.4646h35.07874l8.50397,13.4646h6.73224l-12.75586-19.84253ZM48.89764,15.59052c0-.70868,.70868-1.41736,1.41736-1.41736h12.40155c.70868,0,1.4173,.70868,1.4173,1.41736v2.83472c0,.70862-.70862,1.4173-1.4173,1.4173h-12.40155c-.70868,0-1.41736-.70868-1.41736-1.4173v-2.83472Zm-14.17322,12.75598c0-2.48041,2.12598-4.60632,4.60632-4.60632h34.37006c2.48029,0,4.60632,2.12598,4.60632,4.60632v21.61414c0,2.48035-2.12604,4.60632-4.60632,4.60632H39.33075c-2.48035,0-4.60632-2.12604-4.60632-4.60632,0,0,0-21.6142,0-21.61414Zm4.96063,48.89758c-2.83466,0-4.96063-2.12598-4.96063-4.96057s2.12598-4.96063,4.96063-4.96063,4.96063,2.12598,4.96063,4.96063c0,2.48029-2.12598,4.96057-4.96063,4.96057Zm34.01575,0c-2.83466,0-4.96063-2.12598-4.96063-4.96057s2.12598-4.96063,4.96063-4.96063,4.96063,2.12598,4.96063,4.96063c.35431,2.48029-2.12598,4.96057-4.96063,4.96057Z"/>
</svg>