<?xml version="1.0" encoding="utf-8"?>
<!-- Generator: Adobe Illustrator 22.1.0, SVG Export Plug-In . SVG Version: 6.00 Build 0)  -->
<svg version="1.1" id="Layer_1" xmlns="http://www.w3.org/2000/svg" xmlns:xlink="http://www.w3.org/1999/xlink" x="0px" y="0px"
	 viewBox="0 0 510.2 623.6" style="enable-background:new 0 0 510.2 623.6;" xml:space="preserve">
<style type="text/css">
	.st0{fill-rule:evenodd;clip-rule:evenodd;}
</style>
<g>
	<path class="st0" d="M479.1,70.6l27.6,203.5c1.8,13.5,3.5,26.1,3.5,39.7v210.6c0,7.8-6.3,14.2-14.2,14.2h-42.5l0,49.6
		c0,19.6-15.9,35.4-35.4,35.4s-35.4-15.9-35.4-35.4v-49.6H127.6v49.6c0,19.6-15.9,35.4-35.4,35.4s-35.4-15.9-35.4-35.4l0-49.6H14.2
		c-7.8,0-14.2-6.3-14.2-14.2l0-210.6c0-13.6,1.7-26.2,3.5-39.7L31.1,70.6C43.8-23.5,466.4-23.5,479.1,70.6L479.1,70.6z M78,311.8
		c-21.8,0-42.5-18-39.7-39.7l17.9-136.9c1.4-10.8,8.9-19.8,19.8-19.8h358.2c10.9,0,18.4,9,19.8,19.8L472,272.1
		c2.8,21.6-17.9,39.7-39.7,39.7H78L78,311.8z M92.1,453.5c-19.6,0-35.4-15.9-35.4-35.4s15.9-35.4,35.4-35.4s35.4,15.9,35.4,35.4
		S111.7,453.5,92.1,453.5L92.1,453.5z M418.1,453.5c19.6,0,35.4-15.9,35.4-35.4s-15.9-35.4-35.4-35.4s-35.4,15.9-35.4,35.4
		S398.5,453.5,418.1,453.5L418.1,453.5z M375.6,44.3c11.7,0,21.3,9.5,21.3,21.3s-9.5,21.3-21.3,21.3H134.6
		c-11.7,0-21.3-9.5-21.3-21.3s9.5-21.3,21.3-21.3H375.6L375.6,44.3z"/>
</g>
</svg>
